# xmcd
#
# Track frame offsets: 
#        150
#        10756
#        25540
#        44443
#        58335
#        77044
#        89721
#        107008
#        122008
#        136976
#        150091
#        173641
#        187920
#        198078
#
# Disc length: 2860 seconds
#
# Revision: 3
# Processed by: cddbd v1.4PL0 Copyright (c) Steve Scherf et al.
# Submitted via: ExactAudioCopy v0.90b4
#
DISCID=a50b2a0e
DTITLE=Beans - Tomorrow Right Now
DYEAR=2003
DGENRE=Bip-Hop
TTITLE0=Roar
TTITLE1=Phreek The Beet
TTITLE2=Mearle
TTITLE3=Raping Silence
TTITLE4=Toast
TTITLE5=Hot Venom
TTITLE6=Crave
TTITLE7=Mutescreamer
TTITLE8=Sickle Cell Hysteria
TTITLE9=Booga Sugar
TTITLE10=Rose Periwinkle Plum
TTITLE11=Slow Broken
TTITLE12=Xon
TTITLE13=Walking By Night
EXTD=
EXTT0=
EXTT1=
EXTT2=
EXTT3=
EXTT4=
EXTT5=
EXTT6=
EXTT7=
EXTT8=
EXTT9=
EXTT10=
EXTT11=
EXTT12=
EXTT13=
PLAYORDER=
